# xmcd CD database file
#
# Track frame offsets:
#	150
#	19738
#	29901
#	52519
#	67046
#	87943
#	100352
#	121456
#	139751
#	151443
#	167575
#	206169
#
# Disc length: 2963 seconds
#
# Revision: 4
# Processed by: cddbd v1.5.1PL0 Copyright (c) Steve Scherf et al.
# Submitted via: CDex 1.50beta8
#
DISCID=a50b910c
DTITLE=The Seldom Scene - The Seldom Scene 20th Anniversary Concert
DYEAR=1900
DGENRE=
TTITLE0=Breakin' New Ground
TTITLE1=Old Train
TTITLE2=Wait A Minute
TTITLE3=Blue Ridge Cabin Home
TTITLE4=Gypsy Moon
TTITLE5=Walk Through This World With Me
TTITLE6=In The Pines
TTITLE7=And On Bass
TTITLE8=Another Lonesome Day
TTITLE9=Have Mercy On My Soul
TTITLE10=House Of The Rising Sun/Walk Don't Run
TTITLE11=In The Midnight Hour
EXTD=
EXTT0=
EXTT1=
EXTT2=
EXTT3=
EXTT4=
EXTT5=
EXTT6=
EXTT7=
EXTT8=
EXTT9=
EXTT10=
EXTT11=
PLAYORDER=
